<?xml version="1.0" encoding="utf-8"?>
<!-- Generator: Adobe Illustrator 21.1.0, SVG Export Plug-In . SVG Version: 6.00 Build 0)  -->
<!DOCTYPE svg PUBLIC "-//W3C//DTD SVG 1.1//EN" "http://www.w3.org/Graphics/SVG/1.1/DTD/svg11.dtd" [
	<!ENTITY st0 "fill:none;">
	<!ENTITY st1 "fill:#FFFFFF;">
]>
<svg version="1.1" id="Layer_1" xmlns="http://www.w3.org/2000/svg" xmlns:xlink="http://www.w3.org/1999/xlink" x="0px" y="0px"
	 viewBox="0 0 60.297 8.899" style="enable-background:new 0 0 60.297 8.899;" xml:space="preserve">
<g>
	<path style="&st0;" d="M41.061,4.546c0-0.876-0.551-1.476-1.667-1.476c-1.235,0-2.074,0.708-2.074,2.255v0.12h2.662
		C40.701,5.445,41.061,5.229,41.061,4.546z"/>
	<path style="&st0;" d="M59.517,4.546c0-0.876-0.552-1.476-1.667-1.476c-1.235,0-2.074,0.708-2.074,2.255v0.12h2.662
		C59.157,5.445,59.517,5.229,59.517,4.546z"/>
	<path style="&st1;" d="M5.745,0.36H5.373c-0.138,0-0.216,0.078-0.216,0.216V8.06H4.965L1.571,0.522
		C1.523,0.408,1.439,0.36,1.319,0.36H0.216C0.078,0.36,0,0.438,0,0.576V8.54c0,0.138,0.078,0.216,0.216,0.216h0.372
		c0.138,0,0.216-0.078,0.216-0.216V1.056h0.192l3.382,7.538C4.426,8.708,4.51,8.755,4.63,8.755h1.115
		c0.138,0,0.216-0.078,0.216-0.216V0.576C5.961,0.438,5.883,0.36,5.745,0.36z"/>
	<path style="&st1;" d="M8.1,0C7.824,0,7.644,0.132,7.644,0.432v0.335c0,0.3,0.18,0.432,0.456,0.432s0.456-0.132,0.456-0.432V0.432
		C8.556,0.132,8.376,0,8.1,0z"/>
	<path style="&st1;" d="M8.268,2.543H7.944c-0.138,0-0.216,0.078-0.216,0.216V8.54c0,0.138,0.078,0.216,0.216,0.216h0.324
		c0.138,0,0.216-0.078,0.216-0.216V2.759C8.484,2.621,8.406,2.543,8.268,2.543z"/>
	<path style="&st1;" d="M12.671,2.399c-0.852,0-1.685,0.252-2.405,0.647c-0.108,0.06-0.15,0.144-0.15,0.258V8.54
		c0,0.138,0.078,0.216,0.216,0.216h0.324c0.138,0,0.216-0.078,0.216-0.216V3.502c0.54-0.288,1.08-0.432,1.679-0.432
		c1.343,0,1.847,0.576,1.847,1.979v3.49c0,0.138,0.078,0.216,0.216,0.216h0.324c0.138,0,0.216-0.078,0.216-0.216V4.965
		C15.153,3.227,14.481,2.399,12.671,2.399z"/>
	<path style="&st1;" d="M19.666,8.132c-0.246,0.06-0.503,0.096-0.779,0.096c-0.768,0-0.948-0.372-0.948-1.151V3.214h1.703
		c0.138,0,0.216-0.078,0.216-0.216v-0.24c0-0.138-0.078-0.216-0.216-0.216h-1.703V0.912c0-0.138-0.078-0.216-0.216-0.216h-0.324
		c-0.138,0-0.216,0.078-0.216,0.216v1.631h-0.972c-0.138,0-0.216,0.078-0.216,0.216v0.24c0,0.138,0.078,0.216,0.216,0.216h0.972
		v3.862c0,1.14,0.396,1.823,1.595,1.823c0.324,0,0.666-0.048,0.947-0.126c0.126-0.03,0.18-0.114,0.18-0.24V8.312
		C19.906,8.156,19.816,8.096,19.666,8.132z"/>
	<path style="&st1;" d="M23.59,2.399c-0.755,0-1.451,0.276-1.967,0.636V0.216C21.624,0.078,21.546,0,21.408,0h-0.324
		c-0.138,0-0.216,0.078-0.216,0.216V8.54c0,0.138,0.078,0.216,0.216,0.216h0.324c0.138,0,0.216-0.078,0.216-0.216V3.742
		c0.48-0.408,1.14-0.672,1.787-0.672c1.295,0,1.727,0.6,1.727,1.979v3.49c0,0.138,0.078,0.216,0.216,0.216h0.312
		c0.138,0,0.216-0.078,0.216-0.216V4.965C25.881,3.214,25.233,2.399,23.59,2.399z"/>
	<path style="&st1;" d="M34.198,4.666l-2.123-0.983c-0.792-0.36-1.188-0.768-1.188-1.463c0-0.959,0.792-1.307,1.955-1.307
		c0.714,0,1.457,0.192,2.081,0.516c0.155,0.078,0.258,0.018,0.258-0.15V0.954c0-0.12-0.042-0.204-0.15-0.258
		c-0.581-0.288-1.421-0.48-2.236-0.48c-1.751,0-2.711,0.696-2.711,1.991c0,0.983,0.504,1.607,1.428,2.039l2.11,0.983
		c0.792,0.372,1.188,0.768,1.188,1.523c0,1.02-0.852,1.451-2.015,1.451c-0.857,0-1.764-0.246-2.435-0.587
		c-0.15-0.078-0.252-0.018-0.252,0.15v0.335c0,0.12,0.042,0.198,0.149,0.258c0.648,0.324,1.577,0.54,2.585,0.54
		c1.751,0,2.771-0.78,2.771-2.135C35.613,5.709,35.121,5.097,34.198,4.666z"/>
	<path style="&st1;" d="M41.841,4.546c0-1.104-0.684-2.147-2.435-2.147c-1.835,0-2.831,1.08-2.831,2.938v0.635
		c0,1.871,0.996,2.927,3.083,2.927c0.551,0,1.115-0.12,1.631-0.354c0.107-0.054,0.155-0.132,0.155-0.252V7.988
		c0-0.168-0.107-0.228-0.258-0.144c-0.516,0.282-1.013,0.396-1.528,0.396c-1.464,0-2.339-0.756-2.339-2.135h2.782
		C41.193,6.105,41.841,5.685,41.841,4.546z M37.319,5.445v-0.12c0-1.547,0.839-2.255,2.074-2.255c1.116,0,1.667,0.6,1.667,1.476
		c0,0.684-0.359,0.899-1.079,0.899H37.319z"/>
	<path style="&st1;" d="M45.599,2.399c-0.852,0-1.686,0.252-2.405,0.647c-0.107,0.06-0.149,0.144-0.149,0.258V8.54
		c0,0.138,0.078,0.216,0.216,0.216h0.324c0.138,0,0.216-0.078,0.216-0.216V3.502c0.539-0.288,1.079-0.432,1.679-0.432
		c1.343,0,1.847,0.576,1.847,1.979v3.49c0,0.138,0.078,0.216,0.216,0.216h0.324c0.138,0,0.216-0.078,0.216-0.216V4.965
		C48.081,3.227,47.409,2.399,45.599,2.399z"/>
	<path style="&st1;" d="M52.75,5.589L50.938,4.93c-0.743-0.276-0.899-0.528-0.899-0.924c0-0.695,0.575-0.936,1.583-0.936
		c0.527,0,1.176,0.108,1.739,0.342c0.149,0.06,0.252,0,0.252-0.162V2.927c0-0.12-0.054-0.204-0.168-0.246
		c-0.57-0.192-1.271-0.282-1.859-0.282c-1.391,0-2.303,0.516-2.303,1.619c0,0.708,0.229,1.104,1.331,1.511l1.8,0.671
		c0.755,0.288,0.899,0.552,0.899,0.983c0,0.684-0.66,1.043-1.644,1.043c-0.605,0-1.367-0.132-2.026-0.432
		c-0.15-0.072-0.252-0.018-0.252,0.15v0.318c0,0.12,0.048,0.204,0.162,0.252c0.653,0.264,1.535,0.384,2.152,0.384
		c1.463,0,2.362-0.624,2.362-1.727C54.068,6.417,53.841,5.985,52.75,5.589z"/>
	<path style="&st1;" d="M59.643,7.844C59.127,8.125,58.63,8.24,58.114,8.24c-1.464,0-2.339-0.756-2.339-2.135h2.782
		c1.092,0,1.739-0.42,1.739-1.559c0-1.104-0.684-2.147-2.435-2.147c-1.835,0-2.831,1.08-2.831,2.938v0.635
		c0,1.871,0.996,2.927,3.083,2.927c0.551,0,1.115-0.12,1.631-0.354C59.853,8.492,59.9,8.414,59.9,8.293V7.988
		C59.9,7.82,59.793,7.76,59.643,7.844z M55.775,5.325c0-1.547,0.839-2.255,2.074-2.255c1.115,0,1.667,0.6,1.667,1.476
		c0,0.684-0.359,0.899-1.079,0.899h-2.662V5.325z"/>
</g>
</svg>
